<?xml version="1.0" encoding="UTF-8"?>
<svg id="Layer_7" data-name="Layer 7" xmlns="http://www.w3.org/2000/svg" viewBox="0 0 1000 250">
  <g id="CM_Black">
    <path id="Auracast" d="m271.89,157.5h-42.98l-7.38,20.97h-17.58l36.77-102.79h19.49l36.77,102.79h-17.72l-7.38-20.97Zm-4.73-13.73l-16.69-47.7-16.84,47.7h33.53Zm41.26-67.93v65.13c0,8.37,1.77,15.46,5.32,21.27,3.55,5.81,8.34,10.14,14.4,13,6.06,2.86,12.78,4.28,20.16,4.28s14.12-1.43,20.23-4.28c6.1-2.85,10.98-7.19,14.62-13,3.64-5.81,5.46-12.9,5.46-21.27v-65.13h-16.84v65.42c0,7.78-2.04,13.64-6.13,17.58-4.08,3.94-9.82,5.91-17.2,5.91s-12.97-1.97-17.06-5.91c-4.09-3.94-6.13-9.79-6.13-17.58v-65.42h-16.84Zm155.36,102.64l-23.63-41.06h-12.85v41.06h-16.84v-102.64h35.44c7.88,0,14.55,1.38,20.01,4.13,5.46,2.76,9.55,6.45,12.26,11.08,2.71,4.63,4.06,9.8,4.06,15.5,0,6.7-1.94,12.78-5.83,18.24-3.89,5.46-9.87,9.18-17.94,11.15l25.4,42.53h-20.08Zm-36.48-54.49h18.61c6.3,0,11.05-1.57,14.25-4.73,3.2-3.15,4.8-7.39,4.8-12.7s-1.58-9.47-4.73-12.48c-3.15-3-7.93-4.5-14.33-4.5h-18.61v34.41Zm138.38,33.52h-42.98l-7.38,20.97h-17.58l36.77-102.79h19.49l36.77,102.79h-17.72l-7.38-20.97Zm-4.73-13.73l-16.69-47.7-16.84,47.7h33.53Zm217.44,13.73h-42.98l-7.38,20.97h-17.58l36.77-102.79h19.49l36.77,102.79h-17.72l-7.38-20.97Zm-4.73-13.73l-16.69-47.7-16.84,47.7h33.53Zm60.99,32.12c5.51,2.41,11.72,3.62,18.61,3.62,7.29,0,13.61-1.4,18.98-4.21,5.36-2.8,9.45-6.52,12.25-11.15,2.81-4.63,4.21-9.55,4.21-14.77,0-6.5-1.5-11.69-4.51-15.58-3-3.89-6.64-6.77-10.93-8.64-4.28-1.87-9.82-3.74-16.61-5.61-5.12-1.38-9.16-2.66-12.11-3.84-2.95-1.18-5.39-2.78-7.31-4.8-1.92-2.02-2.88-4.6-2.88-7.75,0-4.63,1.53-8.17,4.58-10.63,3.05-2.46,6.99-3.69,11.82-3.69,5.32,0,9.6,1.33,12.85,3.99,3.25,2.66,5.02,5.86,5.32,9.6h18.61c-.69-8.66-4.21-15.48-10.56-20.46-6.35-4.97-14.5-7.45-24.44-7.45-6.99,0-13.14,1.18-18.46,3.54-5.32,2.36-9.45,5.76-12.41,10.19-2.95,4.43-4.43,9.6-4.43,15.51,0,6.4,1.48,11.52,4.43,15.36,2.95,3.84,6.52,6.67,10.71,8.49,4.19,1.82,9.62,3.62,16.32,5.39,5.32,1.38,9.48,2.66,12.48,3.84,3,1.18,5.51,2.86,7.53,5.02,2.02,2.16,3.03,4.97,3.03,8.42,0,4.43-1.62,8.05-4.87,10.86-3.25,2.8-7.78,4.21-13.59,4.21s-9.97-1.43-13.07-4.28-4.85-6.5-5.24-10.93h-18.02c0,5.91,1.57,11.08,4.73,15.51,3.15,4.43,7.48,7.85,13,10.26m70.86-100.06v13.73h27.47v88.91h16.84v-88.91h27.32v-13.73h-71.63Zm-211.58,71.02h0c-.06-.06-.14-.09-.2-.13l-6.75-4.34c-9.43,20.18-35.77,27.43-54.13,14.73-21.39-13.98-21.4-47.16,0-61.14,18.25-12.7,44.81-5.4,54.13,14.73,0,.02.02.07.04.09l8.81-5.73s.07-.09.09-.11l4.98-3.21c-.2-.3-4.36-6.68-4.35-6.69-.03-.04-.06-.07-.09-.11-18.96-26.08-57.51-29.03-80.64-6.16,0,0,0,0,0,.01,0,0,0,0-.01.01-20.63,21.11-20.63,54.37,0,75.48,0,0,0,0,.01.01,0,0,0,0,0,.01,23.11,22.87,61.74,19.91,80.66-6.19l.07-.08.46-.72,3.89-5.97c-1.4-.9-5.64-3.64-6.97-4.49"/>
    <path d="m962.61,172.4h5.04v1.17h-1.77v6.17h-1.5l.02-6.17h-1.79v-1.17Zm14.59,0v7.34h-1.4l-.02-5.31-2.27,5.31h-1.06l-2.25-5.4v5.4h-1.37v-7.34h1.94l2.27,5.56,2.33-5.56h1.83Z"/>
    <path d="m63.82,58.39l-39.16,58.44c-.17.25-.44.39-.73.39-.1,0-.2-.02-.3-.05-.38-.14-.62-.52-.57-.92,2.65-25.03,17.46-47.13,39.62-59.12.35-.19.8-.12,1.07.18s.3.74.08,1.08Zm74.32,132.43H63.9c-.32,0-.64.15-.8.44-.25.44-.09.96.32,1.2,11.5,6.73,24.5,10.29,37.58,10.29s26.05-3.55,37.55-10.27c.28-.16.48-.46.47-.78,0-.5-.41-.88-.88-.88Zm1.6-132.76c-.67-.41-1.44.35-1.06,1.05l36.54,65.73c.39.7,1.45.42,1.45-.37,0-28.15-14.79-52.79-36.93-66.4Zm-5.89,121.29c11.47,0,21.78-5.9,27.6-15.78,5.82-9.88,5.96-21.76.4-31.79l-36.95-66.54c-4.74-8.53-13-13.93-22.66-14.83-1.03-.04-1.89-.06-2.71-.06s-1.7.02-2.7.06h-.02s-.16,0-.16,0c-9.12.86-17.11,5.86-21.94,13.74-.2.32-21.95,34.76-44.05,69.87l-.03.05c-1.88,2.99-2.44,6.65-1.54,10.03,2.83,10.59,6.44,16.18,9.27,19.87.1.13.21.19.35.19.16,0,.33-.08.42-.21.08-.11.1-.23.06-.38-2.2-7.94-1.17-15.87,2.9-22.35,21.98-34.93,43.87-69.58,44.07-69.9l.05-.09c2.85-4.66,7.81-7.45,13.28-7.45.1,0,.21,0,.31,0,5.6.12,10.56,3.11,13.27,8l36.95,66.54c3.22,5.79,3.13,12.66-.23,18.38-3.36,5.71-9.33,9.12-15.95,9.12h-51.1c-4.71,0-8.95-2.63-11.05-6.88-1.86-3.75-1.59-8.38.69-12.09l24.67-40.05c.38-.62,1.05-.99,1.77-.99s1.46.41,1.83,1.08l11.67,21.21c.33.6.34,1.32.04,1.93-.29.58-.82.97-1.46,1.06-.1.01-.2.02-.3.02h-12.61c-3.71,0-6.83,2.93-6.95,6.52-.06,1.85.61,3.6,1.9,4.93,1.28,1.33,3.01,2.06,4.86,2.06h20.08c2.15,0,4.12,1.17,5.16,3.05l1.7,3.09c.23.41.69,1.08,1.11,1.5,1.32,1.37,3.14,2.15,5,2.15,1.04,0,2.03-.24,2.95-.71,1.65-.84,2.86-2.27,3.4-4.04.54-1.77.35-3.63-.54-5.25l-27.84-50.68c-1.94-3.52-5.5-5.69-9.52-5.78-.09,0-.19,0-.28,0-3.9,0-7.46,1.99-9.51,5.31l-28.77,46.7c-4.98,8.08-5.19,17.85-.56,26.14,4.63,8.28,13.05,13.23,22.55,13.23h51.1Z"/>
  </g>
</svg>