<?xml version="1.0" encoding="UTF-8"?>
<svg id="Layer_7" data-name="Layer 7" xmlns="http://www.w3.org/2000/svg" viewBox="0 0 1000 250">
  <defs>
    <style>
      .cls-1 {
        fill: #0082fc;
      }
    </style>
  </defs>
  <g id="CM_Color_Tag">
    <path id="Tag" d="m38.85,220.26h-12.23l-2.46,6.61h-1.8l9.47-25.19h1.84l9.44,25.19h-1.8l-2.46-6.61Zm-.51-1.39l-5.58-15.02-5.62,15.02h11.2Zm78.22-3.12c1.02,1.2,1.53,2.61,1.53,4.22,0,1.32-.31,2.5-.94,3.54-.62,1.04-1.55,1.86-2.79,2.46-1.24.6-2.73.9-4.5.9h-8.19v-25.78h8.04c2.57,0,4.51.6,5.82,1.78,1.31,1.19,1.97,2.72,1.97,4.61,0,1.64-.44,2.97-1.32,3.99-.88,1.02-2.01,1.71-3.38,2.08,1.49.27,2.75,1,3.76,2.2m-13.23-2.94h6.46c1.93,0,3.42-.46,4.46-1.38,1.04-.92,1.56-2.18,1.56-3.8s-.51-2.8-1.54-3.71c-1.03-.9-2.58-1.36-4.66-1.36h-6.28v10.25Zm11.33,11.14c1.19-.99,1.78-2.36,1.78-4.09s-.61-3.08-1.82-4.09c-1.21-1.01-2.87-1.52-4.98-1.52h-6.31v11.2h6.42c2.08,0,3.71-.5,4.9-1.49m31.96-22.86h-1.65v25.78h11.23v-1.39h-9.58v-24.38Zm35.21,0v16.08c0,3.33.83,5.82,2.48,7.47,1.65,1.65,3.84,2.48,6.55,2.48s4.88-.82,6.5-2.46c1.61-1.64,2.42-4.14,2.42-7.49v-16.08h-1.65v16.12c0,2.94-.65,5.08-1.94,6.42-1.3,1.35-3.07,2.02-5.32,2.02s-4.08-.68-5.4-2.04c-1.32-1.36-1.98-3.49-1.98-6.41v-16.12h-1.65Zm58.89,1.4v-1.4h-13.03v25.78h13.03v-1.39h-11.38v-10.83h10.28v-1.39h-10.28v-10.76h11.38Zm24.93-1.4v1.4h7.34v24.38h1.65v-24.38h7.34v-1.4h-16.34Zm47.36,24.4c-1.91-1.11-3.4-2.67-4.48-4.68-1.08-2.01-1.62-4.27-1.62-6.79s.54-4.81,1.62-6.81c1.08-2,2.57-3.55,4.48-4.66,1.91-1.11,4.05-1.67,6.42-1.67s4.52.56,6.42,1.67c1.91,1.12,3.4,2.67,4.48,4.66,1.08,2,1.61,4.26,1.61,6.81s-.54,4.79-1.61,6.79c-1.08,2.01-2.57,3.57-4.48,4.68-1.91,1.12-4.05,1.67-6.42,1.67s-4.52-.56-6.42-1.67m11.93-1.23c1.64-.96,2.93-2.31,3.87-4.08.94-1.76,1.41-3.82,1.41-6.17s-.47-4.44-1.41-6.2c-.94-1.76-2.23-3.12-3.87-4.08-1.64-.96-3.48-1.43-5.51-1.43s-3.87.47-5.51,1.43c-1.64.96-2.94,2.31-3.89,4.08-.95,1.76-1.43,3.83-1.43,6.2s.48,4.41,1.43,6.17c.96,1.76,2.25,3.12,3.89,4.08,1.64.96,3.48,1.43,5.51,1.43s3.87-.48,5.51-1.43m39.1,1.23c-1.91-1.11-3.4-2.67-4.48-4.68-1.08-2.01-1.62-4.27-1.62-6.79s.54-4.81,1.62-6.81c1.08-2,2.57-3.55,4.48-4.66,1.91-1.11,4.05-1.67,6.43-1.67s4.52.56,6.42,1.67c1.91,1.12,3.4,2.67,4.48,4.66,1.08,2,1.61,4.26,1.61,6.81s-.54,4.79-1.61,6.79c-1.08,2.01-2.57,3.57-4.48,4.68-1.91,1.12-4.05,1.67-6.42,1.67s-4.52-.56-6.43-1.67m11.93-1.23c1.64-.96,2.93-2.31,3.87-4.08.94-1.76,1.41-3.82,1.41-6.17s-.47-4.44-1.41-6.2c-.94-1.76-2.24-3.12-3.87-4.08-1.64-.96-3.47-1.43-5.51-1.43s-3.87.47-5.51,1.43c-1.64.96-2.94,2.31-3.89,4.08-.95,1.76-1.43,3.83-1.43,6.2s.48,4.41,1.43,6.17c.96,1.76,2.25,3.12,3.89,4.08s3.48,1.43,5.51,1.43,3.87-.48,5.51-1.43m31.94-23.17v1.4h7.34v24.38h1.65v-24.38h7.34v-1.4h-16.34Zm59,0v11.9h-15.05v-11.9h-1.65v25.78h1.65v-12.48h15.05v12.48h1.65v-25.78h-1.65Zm27.4.68c.77.45,1.37,1.07,1.81,1.86.43.79.65,1.67.65,2.64s-.22,1.86-.65,2.65c-.43.8-1.04,1.42-1.81,1.87-.77.45-1.64.68-2.62.68s-1.84-.22-2.62-.68c-.77-.45-1.37-1.07-1.81-1.87-.43-.8-.65-1.68-.65-2.65s.22-1.85.65-2.64c.43-.79,1.04-1.41,1.81-1.86.77-.45,1.64-.68,2.62-.68s1.84.23,2.62.68m-.35,8.43c.66-.39,1.18-.93,1.54-1.62.36-.69.54-1.46.54-2.31s-.18-1.61-.54-2.3c-.36-.68-.88-1.22-1.54-1.61-.66-.39-1.42-.58-2.27-.58-1.29,0-2.34.42-3.13,1.26-.8.84-1.19,1.92-1.19,3.23,0,.85.18,1.62.55,2.31.36.69.87,1.23,1.53,1.62.65.39,1.41.58,2.26.58s1.61-.19,2.27-.58m-.44-4c-.28.29-.66.47-1.14.52l1.7,2.36-.98.03-1.65-2.39h-.82v2.39h-.85v-5.68h2.34c.57,0,1.01.14,1.34.42.33.28.49.69.49,1.22,0,.46-.14.84-.42,1.13m-2.89-.2h1.41c.73,0,1.09-.31,1.09-.93,0-.3-.1-.53-.29-.68-.2-.15-.46-.23-.8-.23h-1.41v1.83Zm54.44-4.91v1.4h7.34v24.38h1.65v-24.38h7.34v-1.4h-16.34Zm55.33,1.4v-1.4h-13.04v25.78h13.04v-1.39h-11.38v-10.83h10.28v-1.39h-10.28v-10.76h11.38Zm27.59,4.72c-1.06,2-1.6,4.27-1.6,6.81s.53,4.78,1.6,6.77c1.06,1.99,2.53,3.55,4.41,4.66,1.87,1.11,3.97,1.67,6.3,1.67,2.94,0,5.41-.69,7.42-2.06,2.01-1.37,3.47-3.29,4.4-5.76h-1.91c-.73,1.96-1.95,3.51-3.65,4.64-1.7,1.14-3.79,1.71-6.26,1.71-1.98,0-3.78-.48-5.4-1.43-1.62-.95-2.89-2.31-3.82-4.06-.93-1.75-1.39-3.8-1.39-6.15s.46-4.45,1.39-6.22c.93-1.78,2.2-3.13,3.82-4.08,1.61-.94,3.42-1.41,5.4-1.41,2.47,0,4.56.57,6.26,1.71,1.7,1.14,2.92,2.69,3.65,4.64h1.91c-.93-2.47-2.4-4.39-4.4-5.76-2.01-1.37-4.48-2.06-7.42-2.06-2.33,0-4.42.56-6.3,1.69-1.87,1.12-3.34,2.69-4.41,4.68m66.44-6.11v11.9h-15.05v-11.9h-1.65v25.78h1.65v-12.48h15.05v12.48h1.65v-25.78h-1.65Zm48.17.04h-1.65v22.98l-15.13-22.98h-1.65v25.74h1.65v-23.06l15.13,23.06h1.65v-25.74Zm33.15,24.36c-1.91-1.11-3.4-2.67-4.48-4.68-1.08-2.01-1.62-4.27-1.62-6.79s.54-4.81,1.62-6.81c1.08-2,2.57-3.55,4.48-4.66,1.91-1.11,4.05-1.67,6.43-1.67s4.51.56,6.42,1.67c1.91,1.12,3.4,2.67,4.48,4.66,1.08,2,1.61,4.26,1.61,6.81s-.54,4.79-1.61,6.79c-1.08,2.01-2.57,3.57-4.48,4.68-1.91,1.12-4.05,1.67-6.42,1.67s-4.52-.56-6.43-1.67m11.93-1.23c1.64-.96,2.93-2.31,3.87-4.08.94-1.76,1.41-3.82,1.41-6.17s-.47-4.44-1.41-6.2c-.94-1.76-2.24-3.12-3.87-4.08-1.64-.96-3.48-1.43-5.51-1.43s-3.87.47-5.51,1.43c-1.64.96-2.94,2.31-3.89,4.08-.95,1.76-1.43,3.83-1.43,6.2s.48,4.41,1.43,6.17c.96,1.76,2.25,3.12,3.89,4.08,1.64.96,3.48,1.43,5.51,1.43s3.87-.48,5.51-1.43m35.69-23.17h-1.65v25.78h11.23v-1.39h-9.58v-24.38Zm40.42,24.4c-1.91-1.11-3.4-2.67-4.48-4.68-1.08-2.01-1.62-4.27-1.62-6.79s.54-4.81,1.62-6.81c1.08-2,2.57-3.55,4.48-4.66,1.91-1.11,4.05-1.67,6.42-1.67s4.52.56,6.42,1.67c1.91,1.12,3.4,2.67,4.48,4.66,1.08,2,1.61,4.26,1.61,6.81s-.54,4.79-1.61,6.79c-1.08,2.01-2.57,3.57-4.48,4.68-1.91,1.12-4.05,1.67-6.42,1.67s-4.52-.56-6.42-1.67m11.93-1.23c1.64-.96,2.93-2.31,3.87-4.08.94-1.76,1.41-3.82,1.41-6.17s-.47-4.44-1.41-6.2c-.94-1.76-2.23-3.12-3.87-4.08-1.64-.96-3.48-1.43-5.51-1.43s-3.87.47-5.51,1.43c-1.64.96-2.94,2.31-3.89,4.08-.95,1.76-1.43,3.83-1.43,6.2s.48,4.41,1.43,6.17c.96,1.76,2.25,3.12,3.89,4.08,1.64.96,3.48,1.43,5.51,1.43s3.87-.48,5.51-1.43m57.13-15.57c-.93-2.45-2.4-4.36-4.42-5.75-2.02-1.38-4.41-2.07-7.18-2.07-2.37,0-4.52.56-6.43,1.67-1.91,1.11-3.4,2.67-4.48,4.66-1.08,2-1.62,4.27-1.62,6.81s.54,4.78,1.62,6.77c1.08,1.99,2.57,3.55,4.48,4.66,1.91,1.12,4.05,1.67,6.43,1.67s4.42-.54,6.28-1.62c1.86-1.08,3.33-2.57,4.41-4.48,1.08-1.91,1.65-4.06,1.73-6.46v-1.1h-13.18v1.39h11.49c-.1,2.18-.62,4.08-1.58,5.71-.95,1.63-2.23,2.88-3.82,3.77-1.59.88-3.36,1.32-5.32,1.32s-3.87-.47-5.51-1.41c-1.64-.94-2.94-2.3-3.89-4.06-.96-1.76-1.43-3.82-1.43-6.17s.48-4.4,1.43-6.17c.95-1.76,2.25-3.12,3.89-4.08,1.64-.95,3.47-1.43,5.51-1.43,2.33,0,4.34.58,6.04,1.73,1.7,1.15,2.92,2.69,3.65,4.63h1.91Zm41.86-7.6l-7.09,13.81-7.12-13.81h-1.87l8.19,15.35v10.43h1.65v-10.43l8.11-15.35h-1.87Z"/>
    <path d="m962,145.91h5.04v1.17h-1.77v6.17h-1.5l.02-6.17h-1.79v-1.17Zm14.59,0v7.34h-1.4l-.02-5.31-2.27,5.31h-1.06l-2.25-5.4v5.4h-1.37v-7.34h1.94l2.27,5.56,2.33-5.56h1.83Z"/>
    <path id="Auracast" d="m271.28,131.01h-42.98l-7.38,20.97h-17.58l36.77-102.79h19.49l36.77,102.79h-17.72l-7.38-20.97Zm-4.73-13.73l-16.69-47.7-16.84,47.7h33.53Zm41.26-67.93v65.13c0,8.37,1.77,15.46,5.32,21.27,3.55,5.81,8.34,10.14,14.4,13,6.06,2.86,12.78,4.28,20.16,4.28s14.12-1.43,20.23-4.28c6.1-2.85,10.98-7.19,14.62-13,3.64-5.81,5.46-12.9,5.46-21.27V49.34h-16.84v65.42c0,7.78-2.04,13.64-6.13,17.58-4.08,3.94-9.82,5.91-17.2,5.91s-12.97-1.97-17.06-5.91c-4.09-3.94-6.13-9.79-6.13-17.58V49.34h-16.84Zm155.36,102.64l-23.63-41.06h-12.85v41.06h-16.84V49.34h35.44c7.88,0,14.55,1.38,20.01,4.13,5.46,2.76,9.55,6.45,12.26,11.08,2.71,4.63,4.06,9.8,4.06,15.5,0,6.7-1.94,12.78-5.83,18.24-3.89,5.46-9.87,9.18-17.94,11.15l25.4,42.53h-20.08Zm-36.48-54.49h18.61c6.3,0,11.05-1.57,14.25-4.73,3.2-3.15,4.8-7.39,4.8-12.7s-1.58-9.47-4.73-12.48c-3.15-3-7.93-4.5-14.33-4.5h-18.61v34.41Zm138.38,33.52h-42.98l-7.38,20.97h-17.58l36.77-102.79h19.49l36.77,102.79h-17.72l-7.38-20.97Zm-4.73-13.73l-16.69-47.7-16.84,47.7h33.53Zm217.44,13.73h-42.98l-7.38,20.97h-17.58l36.77-102.79h19.49l36.77,102.79h-17.72l-7.38-20.97Zm-4.73-13.73l-16.69-47.7-16.84,47.7h33.53Zm60.99,32.12c5.51,2.41,11.72,3.62,18.61,3.62,7.29,0,13.61-1.4,18.98-4.21,5.36-2.8,9.45-6.52,12.25-11.15,2.81-4.63,4.21-9.55,4.21-14.77,0-6.5-1.5-11.69-4.51-15.58-3-3.89-6.64-6.77-10.93-8.64-4.28-1.87-9.82-3.74-16.61-5.61-5.12-1.38-9.16-2.66-12.11-3.84-2.95-1.18-5.39-2.78-7.31-4.8-1.92-2.02-2.88-4.6-2.88-7.75,0-4.63,1.53-8.17,4.58-10.63,3.05-2.46,6.99-3.69,11.82-3.69,5.32,0,9.6,1.33,12.85,3.99,3.25,2.66,5.02,5.86,5.32,9.6h18.61c-.69-8.66-4.21-15.48-10.56-20.46-6.35-4.97-14.5-7.45-24.44-7.45-6.99,0-13.14,1.18-18.46,3.54-5.32,2.36-9.45,5.76-12.41,10.19-2.95,4.43-4.43,9.6-4.43,15.51,0,6.4,1.48,11.52,4.43,15.36,2.95,3.84,6.52,6.67,10.71,8.49,4.19,1.82,9.62,3.62,16.32,5.39,5.32,1.38,9.48,2.66,12.48,3.84,3,1.18,5.51,2.86,7.53,5.02,2.02,2.16,3.03,4.97,3.03,8.42,0,4.43-1.62,8.05-4.87,10.86-3.25,2.8-7.78,4.21-13.59,4.21s-9.97-1.43-13.07-4.28-4.85-6.5-5.24-10.93h-18.02c0,5.91,1.57,11.08,4.73,15.51,3.15,4.43,7.48,7.85,13,10.26m70.86-100.06v13.73h27.47v88.91h16.84V63.08h27.32v-13.73h-71.63Zm-211.58,71.02h0c-.06-.06-.14-.09-.2-.13l-6.75-4.34c-9.43,20.18-35.77,27.43-54.13,14.73-21.39-13.98-21.4-47.16,0-61.14,18.25-12.7,44.81-5.4,54.13,14.73,0,.02.02.07.04.09l8.81-5.73s.07-.09.09-.11l4.98-3.21c-.2-.3-4.36-6.68-4.35-6.69-.03-.04-.06-.07-.09-.11-18.96-26.08-57.51-29.03-80.64-6.16,0,0,0,0,0,.01,0,0,0,0-.01.01-20.63,21.11-20.63,54.37,0,75.48,0,0,0,0,.01.01,0,0,0,0,0,.01,23.11,22.87,61.74,19.91,80.66-6.19l.07-.08.46-.72,3.89-5.97c-1.4-.9-5.64-3.64-6.97-4.49"/>
    <path class="cls-1" d="m62.82,31.9l-39.16,58.44c-.17.25-.44.39-.73.39-.1,0-.2-.02-.3-.05-.38-.14-.62-.52-.57-.92,2.65-25.03,17.46-47.13,39.62-59.12.35-.19.8-.12,1.07.18s.3.74.08,1.08Zm74.32,132.43H62.9c-.32,0-.64.15-.8.44-.25.44-.09.96.32,1.2,11.5,6.73,24.5,10.29,37.58,10.29s26.05-3.55,37.55-10.27c.28-.16.48-.46.47-.78,0-.5-.41-.88-.88-.88Zm1.6-132.76c-.67-.41-1.44.35-1.06,1.05l36.54,65.73c.39.7,1.45.42,1.45-.37,0-28.15-14.79-52.79-36.93-66.4Zm-5.89,121.29c11.47,0,21.78-5.9,27.6-15.78,5.82-9.88,5.96-21.76.4-31.79l-36.95-66.54c-4.74-8.53-13-13.93-22.66-14.83-1.03-.04-1.89-.06-2.71-.06s-1.7.02-2.7.06h-.02s-.16,0-.16,0c-9.12.86-17.11,5.86-21.94,13.74-.2.32-21.95,34.76-44.05,69.87l-.03.05c-1.88,2.99-2.44,6.65-1.54,10.03,2.83,10.59,6.44,16.18,9.27,19.87.1.13.21.19.35.19.16,0,.33-.08.42-.21.08-.11.1-.23.06-.38-2.2-7.94-1.17-15.87,2.9-22.35,21.98-34.93,43.87-69.58,44.07-69.9l.05-.09c2.85-4.66,7.81-7.45,13.28-7.45.1,0,.21,0,.31,0,5.6.12,10.56,3.11,13.27,8l36.95,66.54c3.22,5.79,3.13,12.66-.23,18.38-3.36,5.71-9.33,9.12-15.95,9.12h-51.1c-4.71,0-8.95-2.63-11.05-6.88-1.86-3.75-1.59-8.38.69-12.09l24.67-40.05c.38-.62,1.05-.99,1.77-.99s1.46.41,1.83,1.08l11.67,21.21c.33.6.34,1.32.04,1.93-.29.58-.82.97-1.46,1.06-.1.01-.2.02-.3.02h-12.61c-3.71,0-6.83,2.93-6.95,6.52-.06,1.85.61,3.6,1.9,4.93,1.28,1.33,3.01,2.06,4.86,2.06h20.08c2.15,0,4.12,1.17,5.16,3.05l1.7,3.09c.23.41.69,1.08,1.11,1.5,1.32,1.37,3.14,2.15,5,2.15,1.04,0,2.03-.24,2.95-.71,1.65-.84,2.86-2.27,3.4-4.04.54-1.77.35-3.63-.54-5.25l-27.84-50.68c-1.94-3.52-5.5-5.69-9.52-5.78-.09,0-.19,0-.28,0-3.9,0-7.46,1.99-9.51,5.31l-28.77,46.7c-4.98,8.08-5.19,17.85-.56,26.14,4.63,8.28,13.05,13.23,22.55,13.23h51.1Z"/>
  </g>
</svg>