<?xml version="1.0" encoding="utf-8"?>
<!-- Generator: Adobe Illustrator 25.0.1, SVG Export Plug-In . SVG Version: 6.00 Build 0)  -->
<svg version="1.1" id="logo" xmlns="http://www.w3.org/2000/svg" xmlns:xlink="http://www.w3.org/1999/xlink" x="0px" y="0px"
	 viewBox="0 0 360 144" style="enable-background:new 0 0 360 144;" xml:space="preserve">
<style type="text/css">
	.st0{fill-rule:evenodd;clip-rule:evenodd;fill:#FFFFFF;}
	.st1{fill:#FFFFFF;}
	.st2{fill-rule:evenodd;clip-rule:evenodd;fill:#0082FC;}
</style>
<g id="Bluetooth">
	<path class="st0" d="M94.2,75.2h3.3c6,0,8.3,3,8.3,9c0,5.9-2,9-7.3,9h-4.2V75.2L94.2,75.2z M94.2,51.1H98c4.5,0,6.6,2.8,6.6,8.3
		c0,4.9-2.9,7.5-6.8,7.5h-3.7V51.1L94.2,51.1z M84.1,101.6h16c11.5,0,15.8-7.3,15.8-17c0-7.6-3-11.6-8.1-13.9c4.9-2,7-7.2,7-12.3
		c0-10-4.8-15.5-15.6-15.5h-15V101.6L84.1,101.6z"/>
	<polygon class="st1" points="128.9,101.6 128.9,42.8 119.8,42.8 119.8,101.6 128.9,101.6 	"/>
	<path class="st1" d="M153.3,57.8v34.3c-2.1,1.5-3.9,2.8-5.9,2.8c-2,0-3.3-1-3.3-3.2V57.8h-9.1v35.4c0,5.7,2.8,9.2,7.6,9.2
		c5.3,0,7.2-2,11.1-5.2v4.4h8.6V57.8H153.3L153.3,57.8z"/>
	<path class="st0" d="M177.2,73.9v-2.3c0-5,1.8-7.2,5-7.2c3.3,0,5,2.1,5,7.2v2.3H177.2L177.2,73.9z M196.4,73.2
		c0-9.6-3.7-16.3-14.2-16.3S168,63.6,168,73.2v12.9c0,9.6,3.7,16.3,14.2,16.3c10.2,0,14-6.3,14.2-15.6h-9.1v1c0,5-1.8,7.2-5,7.2
		c-3.3,0-5-2.1-5-7.2v-6.3h19.2V73.2L196.4,73.2z"/>
	<path class="st1" d="M353.9,49.1c0,3.5-3,6.4-6.4,6.4c-3.6,0-6.4-2.8-6.4-6.4c0-3.5,2.9-6.4,6.4-6.4
		C351.1,42.7,353.9,45.5,353.9,49.1z M342.5,49c0,2.7,2.2,5.1,5,5.1c2.8,0,5-2.3,5-5c0-2.8-2.2-5.1-5-5.1
		C344.7,44,342.5,46.3,342.5,49z M348.6,52.6l-2-3.1h-0.1v3.1h-1.2v-7.1h2.1c1.7,0,2.4,0.7,2.4,1.8c0,1.2-0.7,1.9-1.9,2
		c0.2,0.2,0.4,0.6,0.7,1l1.5,2.2H348.6z M347.4,46.5h-0.8v2.2h0.5c1.1,0,1.5-0.6,1.5-1.2C348.6,46.8,348.3,46.5,347.4,46.5z"/>
	<path class="st1" d="M204.4,65.3v27.3c0,6.7,3.8,9.8,10.7,9.8c2.3,0,3.3-0.2,4.6-0.5v-7.8h-3c-2.1,0-3.1-1.3-3.1-3.6V65.3h6.1v-7.5
		h-6.1V46h-9.1v11.8h-5v7.5H204.4L204.4,65.3z"/>
	<path class="st0" d="M242.6,87.7c0,5-1.8,7.2-5,7.2c-3.3,0-5-2.1-5-7.2V71.6c0-5,1.8-7.2,5-7.2c3.3,0,5,2.1,5,7.2V87.7L242.6,87.7z
		 M223.4,86.1c0,9.6,3.7,16.3,14.2,16.3c10.4,0,14.2-6.7,14.2-16.3V73.2c0-9.6-3.7-16.3-14.2-16.3c-10.4,0-14.2,6.7-14.2,16.3V86.1
		L223.4,86.1z"/>
	<path class="st0" d="M275.7,87.7c0,5-1.8,7.2-5,7.2c-3.3,0-5-2.1-5-7.2V71.6c0-5,1.8-7.2,5-7.2c3.3,0,5,2.1,5,7.2V87.7L275.7,87.7z
		 M256.5,86.1c0,9.6,3.7,16.3,14.2,16.3c10.4,0,14.2-6.7,14.2-16.3V73.2c0-9.6-3.7-16.3-14.2-16.3c-10.4,0-14.2,6.7-14.2,16.3V86.1
		L256.5,86.1z"/>
	<path class="st1" d="M292.7,65.3v27.3c0,6.7,3.8,9.8,10.7,9.8c2.3,0,3.3-0.2,4.6-0.5v-7.8h-3c-2.1,0-3.1-1.3-3.1-3.6V65.3h6.1v-7.5
		h-6.1V46h-9.1v11.8h-5v7.5H292.7L292.7,65.3z"/>
	<path class="st1" d="M322.7,101.6V67.2c2.1-1.5,3.9-2.8,5.9-2.8c2,0,3.3,1,3.3,3.2v33.9h9.1V66.2c0-5.7-2.8-9.2-7.6-9.2
		c-5.3,0-7.2,2-10.6,4.9v-19h-9.1v58.8H322.7L322.7,101.6z"/>
</g>
<g id="Bug_1_">
	<ellipse class="st0" cx="38.4" cy="71.8" rx="24.3" ry="40.2"/>
	<path id="Bug" class="st2" d="M41.8,50.6l7,7l-7,7L41.8,50.6L41.8,50.6z M41.8,93.7l7-7l-7-7L41.8,93.7L41.8,93.7z M34.3,72.2
		L19.1,56.9l4.4-4.4l12.1,12.1V35.6l22,22L43.1,72.2l14.6,14.6l-22,22V79.7L23.5,91.8l-4.4-4.4L34.3,72.2L34.3,72.2z M38.4,114.7
		c18.6,0,31.4-8.8,31.4-42.6c0-33.7-12.8-42.6-31.4-42.6C19.8,29.6,7,38.4,7,72.2C7,105.9,19.8,114.7,38.4,114.7L38.4,114.7z"/>
</g>
</svg>
