<?xml version="1.0" encoding="UTF-8"?>
<svg id="Layer_7" data-name="Layer 7" xmlns="http://www.w3.org/2000/svg" viewBox="0 0 250 250">
  <g id="FM_Black">
    <path d="m72.52,26.5L15.92,110.95c-.24.36-.64.56-1.06.56-.14,0-.29-.02-.43-.08-.55-.2-.89-.75-.83-1.33,3.83-36.17,25.23-68.11,57.26-85.44.51-.28,1.15-.17,1.54.26s.44,1.08.12,1.56Zm107.4,191.38h-107.28c-.47,0-.93.22-1.16.63-.36.63-.13,1.39.46,1.74,16.63,9.73,35.41,14.87,54.31,14.87s37.65-5.13,54.26-14.84c.4-.24.69-.66.68-1.13,0-.72-.59-1.27-1.27-1.27Zm2.31-191.86c-.97-.59-2.08.51-1.53,1.51l52.81,95c.56,1.01,2.09.61,2.09-.54,0-40.68-21.38-76.29-53.37-95.96Zm-8.51,175.29c16.57,0,31.48-8.53,39.88-22.8,8.4-14.28,8.62-31.45.58-45.94l-53.39-96.17c-6.85-12.33-18.78-20.14-32.75-21.43-1.49-.06-2.74-.08-3.92-.08s-2.46.03-3.9.08h-.02s-.23.01-.23.01c-13.18,1.25-24.73,8.48-31.71,19.85-.29.46-31.73,50.24-63.67,100.98l-.04.07c-2.72,4.33-3.53,9.61-2.22,14.5,4.09,15.3,9.31,23.38,13.39,28.71.14.19.31.28.51.28.23,0,.47-.12.61-.3.12-.15.15-.34.08-.56-3.18-11.47-1.7-22.94,4.19-32.29,31.77-50.48,63.4-100.55,63.69-101.02l.08-.13c4.12-6.74,11.29-10.76,19.19-10.76.15,0,.3,0,.45,0,8.09.17,15.26,4.49,19.18,11.56l53.39,96.17c4.65,8.37,4.53,18.3-.33,26.56-4.86,8.25-13.48,13.18-23.06,13.18h-73.85c-6.81,0-12.93-3.81-15.97-9.94-2.69-5.42-2.3-12.11.99-17.47l35.66-57.88c.55-.9,1.51-1.43,2.56-1.43s2.11.6,2.64,1.56l16.87,30.65c.47.86.49,1.9.05,2.79-.42.84-1.19,1.4-2.1,1.53-.14.02-.28.03-.43.03h-18.23c-5.37,0-9.87,4.23-10.05,9.43-.09,2.67.88,5.2,2.74,7.12,1.86,1.92,4.35,2.98,7.02,2.98h29.02c3.1,0,5.96,1.69,7.46,4.41l2.46,4.47c.33.6,1,1.56,1.61,2.16,1.91,1.97,4.54,3.11,7.23,3.11,1.5,0,2.93-.34,4.27-1.02,2.39-1.21,4.13-3.29,4.92-5.84.78-2.55.51-5.25-.78-7.59l-40.23-73.25c-2.8-5.09-7.94-8.22-13.75-8.36-.13,0-.27,0-.41,0-5.64,0-10.78,2.87-13.74,7.68l-41.58,67.49c-7.19,11.68-7.5,25.8-.81,37.77,6.69,11.97,18.87,19.12,32.58,19.12h73.85Z"/>
    <path d="m223.8,217.72h2.68v10.7h-2.04l-.03-7.75-3.31,7.75h-1.55l-3.28-7.87v7.87h-2.01v-10.7h2.83l3.31,8.12,3.41-8.12Zm-18.61,1.7h2.62l-.03,9h2.19v-9h2.59v-1.7h-7.36v1.7Z"/>
  </g>
</svg>